<svg width="200" height="200" viewBox="0 0 200 200" xmlns="http://www.w3.org/2000/svg">
  <path d="M60 120 L140 120 L130 180 L70 180 Z" fill="#D2B48C" stroke="#8B4513" stroke-width="2"/>
  <line x1="80" y1="120" x2="85" y2="180" stroke="#8B4513" stroke-width="1" opacity="0.3"/>
  <line x1="100" y1="120" x2="100" y2="180" stroke="#8B4513" stroke-width="1" opacity="0.3"/>
  <line x1="120" y1="120" x2="115" y2="180" stroke="#8B4513" stroke-width="1" opacity="0.3"/>

  <path d="M50 120 
           C 40 120, 40 90, 60 90 
           C 50 60, 90 50, 100 50 
           C 110 50, 150 60, 140 90 
           C 160 90, 160 120, 150 120 Z" 
        fill="#FFB6C1" stroke="#FF69B4" stroke-width="2"/>
  
  <circle cx="85" cy="85" r="2" fill="#FFD700" />
  <circle cx="115" cy="75" r="2" fill="#00BFFF" />
  <circle cx="100" cy="100" r="2" fill="#7CFC00" />
  <circle cx="130" cy="95" r="2" fill="#9370DB" />
  
  <circle cx="100" cy="45" r="8" fill="#FF0000" />
  <path d="M102 38 Q 110 25, 115 25" fill="none" stroke="#228B22" stroke-width="2" stroke-linecap="round"/>
</svg>
